<svg xmlns="http://www.w3.org/2000/svg" data-name="Layer 1" viewBox="0 0 1158.99 771"><polygon fill="#eae4d8" points="302.92 474.2 241.37 408.85 307.33 345.47 368.88 410.83 302.92 474.2"/><path fill="#1b264a" d="M302.9,475l-.37-.39-61.9-65.73.37-.36,66.35-63.74.37.38,61.9,65.74-.37.36Zm-60.79-66.09,60.82,64.6,65.21-62.65-60.82-64.59Z"/><rect width="90.91" height="1.05" x="247.99" y="396.31" fill="#1d2353" transform="rotate(-43.83 293.483 396.862)"/><rect width="90.91" height="1.05" x="270.05" y="419.74" fill="#1d2353" transform="rotate(-43.85 315.504 420.262)"/><rect width="1.05" height="89.53" x="313.64" y="356" fill="#1d2353" transform="rotate(-43.28 314.161 400.762)"/><rect width="1.05" height="89.53" x="291.86" y="376.92" fill="#1d2353" transform="rotate(-43.28 292.368 421.683)"/><path fill="#1088c5" d="M494.5,610.23c1.78,1.9,7.34,14,10.26,24.28,4.3,15.14,3.2,62.1,3.2,62.1,6.42,26.22,143.34,24.82,143.34,3.4l-2-38.37c0-5.22,1.72-12.65,7.05-13C700.94,645.2,721,635,731.27,616.05c8.3-15.41,7.81-28.92,3.53-50.88-1.73-8.91,30.33-10.87,24.26-29.65s-23.25-28-23.25-35.57c0-19.26-2.24-35.74-8.68-50.37-4.37-9.93-83.76-26.52-132.72-26.52-28.78,0-135.06,20.84-137,24.61C451.19,459.82,416.82,527.19,494.5,610.23Z"/><path d="M454.9,454.88c0,7.81,8.77,15.06,23.78,21.06a153.93,153.93,0,0,0,16.78,5.5,266.56,266.56,0,0,0,29.37,6.05q9.06,1.39,18.92,2.41a474.47,474.47,0,0,0,48.2,2.38c75.69,0,137-16.75,137-37.4s-61.36-37.4-137-37.4c-30.07,0-57.9,2.64-80.49,7.13-5.58,1.1-10.84,2.32-15.73,3.63a137.19,137.19,0,0,0-22.51,7.95,55.82,55.82,0,0,0-11,6.57C457.5,446.57,454.9,450.64,454.9,454.88Z"/><path fill="#1d2353" d="M812.73,270.06l-.38-.14c-6.14-2.14-13.14-7.94-17.81-14.78-11-16-4.72-28.91,4-35.09,5-3.56,10.68-5.15,18.42-5.15a106.3,106.3,0,0,1,10.91.71c10,1,16.69-.67,22.84-5.63l3.49-2.92L861.63,218l-3.42,2.86c-6.67,6-15.94,8.55-27.27,7.53-3.59-.36-6.39-.52-8.83-.52-6.11,0-10.37,1.09-13.8,3.54C801.79,236,801,243,806,250.38c3.23,4.73,8.08,8.62,12.36,9.92l.68.2ZM816.91,216c-7.5,0-13,1.53-17.81,5-8.28,5.9-14.22,18.25-3.7,33.63,4.47,6.53,11.06,12.08,16.91,14.25l5.12-7.71c-4.37-1.55-9-5.36-12.26-10.11-5.37-7.84-4.42-15.48,2.53-20.43,3.62-2.58,8.07-3.73,14.41-3.73,2.47,0,5.31.17,8.93.52,1.57.15,3.12.22,4.61.22,9,0,16.33-2.52,21.87-7.49l2.7-2.26-6.29-9.19-2.61,2.18c-5.26,4.24-11,6.13-18.46,6.13-1.6,0-3.33-.09-5.14-.27A107.79,107.79,0,0,0,816.91,216Zm57.42-5.26a9.14,9.14,0,0,1-7.59-4.15c-3.25-4.75-2.12-10.3,2.81-13.81a10.39,10.39,0,0,1,6-2,9,9,0,0,1,7.56,4.2l.09.13c3,4.45,1.85,10.3-2.78,13.6A10.6,10.6,0,0,1,874.33,210.69Zm1.24-18.95a9.37,9.37,0,0,0-5.41,1.85c-4.43,3.15-5.45,8.12-2.55,12.36a8.09,8.09,0,0,0,6.72,3.69,9.51,9.51,0,0,0,5.5-1.88c4.22-3,5.28-8.11,2.52-12.15l-.09-.13A8,8,0,0,0,875.57,191.74Z"/><path fill="#1a2251" d="M938.86,322.72a5.12,5.12,0,0,1-1.28-6.54l-1.07.28c2.87,1.33,3.6,4.69,2.76,7.53a6.42,6.42,0,0,1-2.28,3.43c-.36.26-1.37,1-1.83.79-.8-.28-1.16-2-1.3-2.72-.69-3.53,1.1-7.69,4.49-9.15,4-1.75,8.42,1,10.41,4.48,4.72,8.38-5.38,16-13.24,14-9.32-2.42-12.81-13.22-10.59-21.71s9.74-18.25,19.26-18.58c9.91-.35,15.33,10.12,15.17,18.79-.1,5.33-1.7,10.5-3.51,15.47a48.65,48.65,0,0,1-5.74,11.41c-4.4,6.27-12.17,11.84-19.71,6.91-6.9-4.51-8.37-14.37-8.7-21.91-.42-9.49,1.18-19.56,6.91-27.39,5.22-7.12,13.88-12.2,22.9-11.22,8.2.89,15,6.72,19,13.7,9.76,17.22.49,37.61-10.91,51.51-5.62,6.86-12.84,13.31-21.56,15.75a23.21,23.21,0,0,1-23-6.31c-11.73-11.79-13.71-30.9-10.52-46.49,3.3-16.16,12.5-31.25,25.91-41,13.61-9.87,34.87-15.27,49-3.32,6.69,5.66,10.44,14.28,11.15,22.91.8,9.84-2.29,19.61-7,28.13-8.75,15.66-23.4,29.06-41.19,33.17s-37.43-1.15-50.51-13.77C879.73,329.21,873,311.21,877,294.62c3.78-15.51,17.76-27.85,33.57-29.94,17.14-2.26,32.67,9.39,38.75,25s2.31,35.78-12,45.62c-12.79,8.83-33.76,7.27-41.71-7.38-7-12.8-1.7-31.33,13.6-34.53s32.18,9.07,34.13,24.42c.85,6.77-1.14,14.85-8.25,17.36-9.24,3.27-18.07-4.83-23.57-11.28s-13.31-17.6-5.49-25.23c6.33-6.18,16.15-4.46,23-.22a67.12,67.12,0,0,1,10.62,8.79c3.51,3.38,7.49,6.93,9.16,11.65,1.42,4,.89,9.29-3,11.71-3.77,2.33-8.25.46-11.57-1.8-3.74-2.54-6.64-6-9.43-9.49-3.16-4-6.24-8.21-8.06-13-2.79-7.4-1.9-17.94,6.2-21.66,8.95-4.1,19.24,2.87,25.91,8.33A71.75,71.75,0,0,1,966,313a52.46,52.46,0,0,1,7.1,25,42.44,42.44,0,0,1-6.87,23.26,38,38,0,0,1-18,15.15,34.05,34.05,0,0,1-24.36-.51c-16.74-6.5-28.55-22.49-37.45-37.36-9.76-16.29-17.38-37.82-6.8-55.66,8.88-15,28.59-21.15,45.06-21.87,15.13-.67,31.75,3.34,42,15.25,12.15,14.17,10.27,34.57,2.7,50.43C961.89,342.16,948,357,930.55,360.22c-19,3.52-36-9.46-44.65-25.4-4.67-8.58-7.5-18.09-9.35-27.65-1.89-9.78-2.64-20-.85-29.86,1.62-8.88,5.33-17.34,11.78-23.75,5.78-5.75,13.5-9.95,21.69-10.72a27.39,27.39,0,0,1,21.54,7.58c5.37,5.17,8.7,12.13,10.54,19.28a62.13,62.13,0,0,1,1.35,23.09c-1.19,9.74-4.29,19.72-10.81,27.25-5.78,6.69-14.42,11.34-23.4,11-8.8-.3-16.18-5.57-21.85-11.94a108,108,0,0,1-14.1-20.8c-2.21-4.14-4-8.83-3.28-13.6.59-3.91,2.7-7.52,6.41-9.15l-1-.13a47.23,47.23,0,0,1,13.9,29.78c.86,10.64-1.86,23-11.46,29.16-4.75,3-10.58,3.06-15-.67s-6.77-9.55-7.67-15c-1-5.93-.06-12.48,3.89-17.21,3.46-4.14,9-6.93,14.47-6.07,9.22,1.45,13,11.56,12.33,19.86-.82,10.2-8.94,19.44-18.9,21.74a19.85,19.85,0,0,1-15.07-2.63,17.15,17.15,0,0,1-8-14.07c-.28-6.05,1.57-12.25.24-18.25-.91-4.09-3.29-8.46-7.15-10.43a8.76,8.76,0,0,0-10.48,2c-2.76,3-3.71,7.36-4.21,11.31-.59,4.71-.49,9.4-2.56,13.8-1.93,4.1-6,7-10.49,4.72-3.74-1.91-6.08-5.77-9.24-8.42s-7.08-3.93-11-2.31c-9.91,4.05-10.29,16.28-14.2,24.63-2.26,4.83-6.16,8.41-11.7,8.66-5.33.24-10.51-1.88-15.57-3.23-4.77-1.28-9.77-2.08-14.59-.54s-8.61,4.8-11.93,8.38a97.53,97.53,0,0,0-9.08,11.29c-2.61,3.84-4.85,8-7.93,11.48a14.72,14.72,0,0,1-4.58,3.73c-2.16,1-4,.63-6.25.29-4.91-.72-9,2.15-13.69,2.91a82.11,82.11,0,0,1-8.74.44c-3.67.19-7.33.44-11,.8-6.72.66-14.31,1.21-20.46,4.22-2.82,1.39-3.69,3.45-4.59,6.41a26.61,26.61,0,0,0-.67,12.72c1.69,8.93,7.15,16.68,11.06,24.73a61.88,61.88,0,0,1,5.1,14.46c.21,1,1.73.57,1.52-.42-2.1-10.18-7.58-18.82-12.11-28-2.07-4.18-3.89-8.63-4.36-13.31a24.22,24.22,0,0,1,.33-7.16c.39-2,.91-4.76,2.16-6.38,1.56-2,4.88-2.74,7.19-3.33a87.54,87.54,0,0,1,11.81-2c6.77-.78,13.58-1.16,20.4-1.37a22.56,22.56,0,0,0,6.93-1.4c2.42-.85,4.82-1.87,7.42-1.84,2.24,0,4.24.87,6.49.41a11.34,11.34,0,0,0,4.79-2.45c3.48-2.85,5.89-6.92,8.28-10.66a112.09,112.09,0,0,1,9.14-12.23c3.54-4.14,7.65-8.31,12.94-10.08,5.53-1.86,11.2-.37,16.6,1.19,4.83,1.4,9.93,3.13,15,2.39,4.88-.7,8.61-3.91,10.86-8.18,2.42-4.56,3.23-9.68,5.07-14.45s5.72-10.75,11.36-11.23c9.36-.78,12,13.49,21.67,12.21,4.09-.55,6.62-4.07,8-7.66,1.77-4.52,1.57-9.19,2.28-13.89.64-4.3,2.09-10,6.72-11.57,5.51-1.91,9.81,3.31,11.4,8,2.08,6.14.06,12.75.2,19.05a18.83,18.83,0,0,0,6.13,14c7.86,7,19.3,6.83,27.68.89,7.8-5.53,12.41-14.68,11.3-24.26-.94-8.17-6.23-16.17-15.12-16.61a17.82,17.82,0,0,0-13.25,5.52,21.23,21.23,0,0,0-5.75,14.67c-.15,9.68,5.27,23.5,16.46,24.33,10.27.77,18-10.14,20.16-19,2.56-10.62.85-22.18-4-31.92a47.86,47.86,0,0,0-9.4-12.95.82.82,0,0,0-1-.12,12.65,12.65,0,0,0-6.95,9.14c-1,4.65.17,9.3,2.14,13.53a103.18,103.18,0,0,0,7.82,13.2,84.47,84.47,0,0,0,8.54,11.13c6.06,6.51,14,11.52,23.16,11.43,9.58-.09,18.66-5.41,24.5-12.82,6.4-8.13,9.32-18.4,10.36-28.55a61.39,61.39,0,0,0-2.5-25.23c-2.48-7.57-6.75-14.72-13.26-19.47A29.07,29.07,0,0,0,904.81,242a39.64,39.64,0,0,0-21.9,14.39c-6.17,7.93-9,18-9.63,27.92-.72,10.84,1,21.83,3.83,32.27,2.78,10.26,7,20.29,13.79,28.58,6,7.42,14.26,13.35,23.54,15.92a38.68,38.68,0,0,0,27.28-2.93c17.38-8.48,30.12-26.92,34-45.6,2-9.29,1.67-19.18-2.16-28a39.12,39.12,0,0,0-16.91-18.29c-15.14-8.48-34.3-8.58-50.59-3.65-9.19,2.77-18.29,7.34-24.56,14.79-6.46,7.66-9,17.7-8.57,27.59.51,10.83,4.57,21.09,9.78,30.48a133.42,133.42,0,0,0,17.92,25.42c6.36,6.91,13.88,13.1,22.71,16.53a35.31,35.31,0,0,0,26.33.05c16.21-6.78,26-25,24.81-42.21-1.36-19.31-14-36.5-29.56-47.22-7.25-5-18.19-9.4-25.87-2.77-6.76,5.84-6.35,16.1-2.94,23.55,2.22,4.87,5.57,9.11,8.9,13.25,3,3.7,6.43,7.22,10.68,9.43,3.39,1.77,7.46,2.54,10.9.44s4.89-6.42,4.45-10.39c-.53-4.8-3.6-8.75-6.86-12.11A102.71,102.71,0,0,0,933,299.21c-7-5.29-16.1-8.44-24.41-4.2a13,13,0,0,0-6.91,8.4c-1.19,4.94.76,9.93,3.31,14.1a58.36,58.36,0,0,0,10,12.19c3.51,3.25,7.66,6.24,12.39,7.34a14.12,14.12,0,0,0,17.1-10.36c2-7.22,0-15.55-4.34-21.54-9.28-12.77-30.79-20.05-42.83-6.72-5.06,5.6-6.93,13.55-6,20.92a25.57,25.57,0,0,0,12.15,18.78c7.35,4.4,16.54,5.24,24.74,3.07a33,33,0,0,0,20-15.5c9.34-16,6.38-36.89-6-50.38a37.74,37.74,0,0,0-22.79-12.23,38.88,38.88,0,0,0-24.38,5.43,42.63,42.63,0,0,0-17.19,18.88,43.8,43.8,0,0,0-2.73,25.9c3.49,18.77,17.26,34.21,35.06,40.71a56.4,56.4,0,0,0,55.47-9.13A75.71,75.71,0,0,0,985,322c5.06-9.15,8.22-19.74,6.94-30.26-1.11-9-5.34-17.8-12.64-23.39-7.54-5.76-17.33-7.16-26.53-5.75-18.4,2.82-33.9,16.08-42.63,32.1-8.5,15.61-11.48,35.28-5.5,52.3,2.84,8,7.89,16,15.56,20.13,8.24,4.48,17.74,3.27,25.67-1.25,8.7-5,15.5-12.95,20.83-21.31,5.61-8.79,9.74-19,9.46-29.55-.45-17.22-16.09-35-34.4-28.91-19.63,6.54-24.86,31.14-20.32,49.16,1.87,7.41,6.7,15.26,15.24,15.29s14.48-8.07,17.93-14.88A66.13,66.13,0,0,0,960,320.77c1.17-5.1,1.54-10.61-.2-15.63-2.86-8.24-10.81-14.32-19.7-11.5-9.18,2.91-16,12.73-17.23,22-1.13,8.56,3.4,18.3,12.28,20.62,7.13,1.87,16.48-3.08,16.45-11.12,0-7.55-9.51-14.54-16-8.91a10.32,10.32,0,0,0-3.32,9c.18,1.27.73,3.54,1.87,4.33.93.64,2.65-.17,3.49-.7,4.66-2.94,5-11.38-.3-13.82a.79.79,0,0,0-1.07.28,6.67,6.67,0,0,0,1.52,8.45c.78.64,1.9-.47,1.11-1.11Z"/><path d="M812.85,512c-6.8,2.62-14.12.3-16.37-5.19a9.47,9.47,0,0,1,.43-7.82,3.46,3.46,0,0,0,.05-2.82l-.3-.74a3.8,3.8,0,0,0-4.88-2L777.05,499a3.78,3.78,0,0,1-4.87-2l-23.79-58.26a3.61,3.61,0,0,1,2.1-4.74l53-20.46a3.78,3.78,0,0,1,4.87,2L815,431.85a3.78,3.78,0,0,0,4.87,2l.37-.14a3.63,3.63,0,0,0,2.18-2.27,10,10,0,0,1,5.84-6.39c5.64-2.19,12.41,1.4,15.11,8s.31,13.74-5.34,15.92a10.15,10.15,0,0,1-7.67-.25,3.74,3.74,0,0,0-2.79,0l-1.4.54a3.62,3.62,0,0,0-2.11,4.74l8.08,19.79a3.61,3.61,0,0,1-2.1,4.74l-15.4,5.95a3.62,3.62,0,0,0-2.1,4.74l.15.37a3.69,3.69,0,0,0,2.23,2.09,9.94,9.94,0,0,1,6.21,5.54C823.35,502.76,819.66,509.34,812.85,512Z"/><path fill="#ffd101" d="M809.75,518.2c-6.8,2.63-14.13.31-16.37-5.18a9.5,9.5,0,0,1,.42-7.83,3.42,3.42,0,0,0,.06-2.82l-.3-.74a3.79,3.79,0,0,0-4.88-2L774,505.28a3.78,3.78,0,0,1-4.87-2L745.29,445a3.62,3.62,0,0,1,2.1-4.75l53-20.46a3.81,3.81,0,0,1,4.88,2.05l6.64,16.27a3.79,3.79,0,0,0,4.88,2l.37-.14a3.68,3.68,0,0,0,2.18-2.27,10,10,0,0,1,5.83-6.4c5.65-2.18,12.41,1.41,15.11,8s.31,13.73-5.33,15.92a10.15,10.15,0,0,1-7.67-.25,3.79,3.79,0,0,0-2.79,0l-1.41.55a3.61,3.61,0,0,0-2.1,4.74L829,480.08a3.62,3.62,0,0,1-2.1,4.74l-15.4,5.95a3.62,3.62,0,0,0-2.11,4.74l.16.37A3.65,3.65,0,0,0,811.8,498a9.94,9.94,0,0,1,6.2,5.55C820.25,509,816.55,515.57,809.75,518.2Z"/><path fill="#191412" d="M804,519.81c-5.13,0-9.51-2.59-11.15-6.59a10,10,0,0,1,.44-8.26,2.92,2.92,0,0,0,0-2.39l-.3-.74a3.22,3.22,0,0,0-3-2,3.28,3.28,0,0,0-1.2.23l-14.73,5.69a4.41,4.41,0,0,1-1.57.29,4.25,4.25,0,0,1-4-2.63L744.8,445.17a4,4,0,0,1,0-3.16,4.23,4.23,0,0,1,2.37-2.27l53-20.46a4.51,4.51,0,0,1,1.58-.29,4.27,4.27,0,0,1,4,2.63l6.64,16.27a3.21,3.21,0,0,0,3,2,3.31,3.31,0,0,0,1.2-.22l.37-.14a3.14,3.14,0,0,0,1.87-1.95,10.49,10.49,0,0,1,6.14-6.72,10.27,10.27,0,0,1,3.65-.67c5.07,0,9.95,3.61,12.14,9a14.26,14.26,0,0,1,.11,10.94,10.36,10.36,0,0,1-5.74,5.67,10.72,10.72,0,0,1-8.07-.26,3.31,3.31,0,0,0-2.4,0l-1.4.55a3.13,3.13,0,0,0-1.78,1.7,3,3,0,0,0,0,2.35l8.09,19.79a4.08,4.08,0,0,1,0,3.16,4.22,4.22,0,0,1-2.38,2.27l-15.39,5.95a3.15,3.15,0,0,0-1.79,1.7,3,3,0,0,0,0,2.35l.15.37a3.18,3.18,0,0,0,1.92,1.79,10.46,10.46,0,0,1,6.52,5.84,10,10,0,0,1-.2,7.74,14.75,14.75,0,0,1-8.35,7.64A16.13,16.13,0,0,1,804,519.81Zm-14-21a4.25,4.25,0,0,1,4,2.62l.3.75a4,4,0,0,1-.06,3.24,8.92,8.92,0,0,0-.41,7.4c1.47,3.61,5.46,5.94,10.17,5.94a15.15,15.15,0,0,0,5.52-1,13.75,13.75,0,0,0,7.77-7.08,8.78,8.78,0,0,0,.19-6.92,9.41,9.41,0,0,0-5.89-5.25,4.2,4.2,0,0,1-2.55-2.38l-.15-.38a4,4,0,0,1,0-3.16,4.18,4.18,0,0,1,2.37-2.26l15.4-5.95a3.16,3.16,0,0,0,1.78-1.7,3,3,0,0,0,0-2.35l-8.09-19.8a4,4,0,0,1,0-3.16,4.21,4.21,0,0,1,2.37-2.26l1.41-.55a4.26,4.26,0,0,1,3.18,0,9.69,9.69,0,0,0,7.28.24,9.35,9.35,0,0,0,5.15-5.11,13.16,13.16,0,0,0-.11-10.12c-2-5-6.53-8.33-11.17-8.33a9.07,9.07,0,0,0-3.27.6,9.44,9.44,0,0,0-5.52,6.07,4.22,4.22,0,0,1-2.49,2.6l-.37.14a4.51,4.51,0,0,1-1.58.29,4.25,4.25,0,0,1-4-2.62L804.74,422a3.22,3.22,0,0,0-3-2,3.32,3.32,0,0,0-1.2.23l-53,20.46a3.15,3.15,0,0,0-1.79,1.7,3,3,0,0,0,0,2.35L769.56,503a3.29,3.29,0,0,0,4.2,1.75l14.73-5.69A4.29,4.29,0,0,1,790.07,498.81Z"/><path fill="#1d2353" d="M137.52,322.32c5.89-6,16-6.2,21.25.8,4.72,6.34,4.56,16.13.58,22.77a8.69,8.69,0,0,1-2.31,2.73,2.47,2.47,0,0,1-1.53.57c-1.09,0-1.5-1-1.57-2-.16-2.13.71-4.55,1.44-6.53A25.59,25.59,0,0,1,162.51,330a15.18,15.18,0,0,1,12.12-3.75,13,13,0,0,1,9.49,6.85,18.28,18.28,0,0,1,1.46,12.32,14.41,14.41,0,0,1-2.52,5.58c-1.23,1.56-3.46,3.36-5.59,2.75-2.45-.71-2.68-3.92-2.53-6a20.54,20.54,0,0,1,1.52-6.16,22.57,22.57,0,0,1,7.22-9.42,16.54,16.54,0,0,1,10.19-3.57,13.7,13.7,0,0,1,9.29,4.32c5.49,5.61,7.39,14.64,5.15,22.09-.47,1.57-2.24,5.59-4.53,4.17-1.79-1.12-1.61-4.28-1.48-6.08A22.8,22.8,0,0,1,207,341a16,16,0,0,1,10-6.36,14.43,14.43,0,0,1,11.25,3.2,16.39,16.39,0,0,1,3.83,4.62.39.39,0,0,0,.68-.39c-4.64-8.19-15.21-11-22.85-5.12a22.53,22.53,0,0,0-7.6,11.78,19.75,19.75,0,0,0-.75,7.29c.17,1.57.73,3.68,2.47,4.18,1.94.56,3.46-1.34,4.25-2.85a17.45,17.45,0,0,0,1.65-6.36,24.85,24.85,0,0,0-2.53-13.37,18,18,0,0,0-8.68-8.68,14.45,14.45,0,0,0-11.3.24,22,22,0,0,0-9.78,8.56c-2.36,3.73-4.34,9-3.23,13.47a4.25,4.25,0,0,0,3.59,3.51c2.11.17,4.13-1.28,5.43-2.81,3-3.48,3.82-8.61,3.26-13a15.58,15.58,0,0,0-6.29-11.12,14.48,14.48,0,0,0-13.08-1.44c-4.53,1.68-8.07,5.37-10.46,9.48a30,30,0,0,0-3,7.09c-.5,1.83-1.37,4.56-.11,6.27s3.32.64,4.52-.5a15.31,15.31,0,0,0,3.37-5.73,23.64,23.64,0,0,0,.74-13.73,16,16,0,0,0-7.44-10.41,14.7,14.7,0,0,0-12.62-.63,15.94,15.94,0,0,0-5.35,3.64c-.36.36.2.92.55.56Z"/><polygon points="380.88 153.06 401.91 171.69 380.35 196.04 403.45 216.5 384.09 238.36 360.99 217.89 339.42 242.24 318.39 223.6 339.95 199.26 316.86 178.8 336.22 156.95 359.32 177.41 380.88 153.06"/><polygon fill="#eda7cc" points="382.82 145.33 403.85 163.96 382.29 188.3 405.39 208.77 386.03 230.62 362.92 210.15 341.36 234.5 320.33 215.87 341.89 191.53 318.8 171.06 338.16 149.21 361.26 169.67 382.82 145.33"/><path fill="#161010" d="M341.4,235.24l-21.81-19.33,21.56-24.34-23.09-20.46,20.06-22.64,23.09,20.46,21.57-24.34,21.81,19.32L383,188.25l23.1,20.47-20.06,22.64L363,210.9Zm-20.33-19.42,20.24,17.94,21.57-24.35L386,229.88l18.67-21.07-23.11-20.47L403.11,164l-20.24-17.93L361.3,170.41,338.21,150,319.54,171l23.1,20.46Z"/><polygon fill="#fff" points="628.86 202.44 673.8 179.65 666.28 168.13 696.97 134.38 645.94 162.9 653.85 175.59 628.86 202.44"/><path fill="#181c28" d="M626.46,204.25l26.74-28.72-8-12.82,54.33-30.36-32.59,35.83,7.62,11.68Zm20.22-41.16,7.83,12.56-23.26,25L673,179.45l-7.42-11.38,28.8-31.66Z"/><polygon fill="#fff" points="556.41 203.85 532.55 159.46 521.21 167.26 486.74 137.38 516.47 187.72 528.97 179.5 556.41 203.85"/><path fill="#181c28" d="M558.27,206.2l-29.35-26-12.62,8.3-31.65-53.59,36.59,31.73,11.5-7.9ZM529,178.84l25.54,22.66-22.18-41.28-11.2,7.7-32.34-28L516.64,187Z"/><path fill="#fff" d="M386.76,253l-17.5,6.43a6.33,6.33,0,0,0-3.76,8.12l3.59,9.77a6.28,6.28,0,0,1-2.41,7.44,86.59,86.59,0,0,0-21.18,19.52,6.36,6.36,0,0,1-7.45,1.94l-11.58-4.75a6.33,6.33,0,0,0-8.26,3.45l-7.07,17.24a6.35,6.35,0,0,0,3.46,8.26l10.2,4.18a6.34,6.34,0,0,1,3.86,7,86.34,86.34,0,0,0-1,26,6.31,6.31,0,0,1-4.11,6.6l-9.63,3.53a6.32,6.32,0,0,0-3.75,8.12l6.43,17.51a6.32,6.32,0,0,0,8.12,3.75l9.48-3.48a6.37,6.37,0,0,1,7.5,2.52A86.68,86.68,0,0,0,358.66,425a6.37,6.37,0,0,1,1.77,7.58l-3.71,8a6.33,6.33,0,0,0,3.08,8.4l16.91,7.82a6.32,6.32,0,0,0,8.4-3.09l3.32-7.17a6.29,6.29,0,0,1,7-3.54,86.54,86.54,0,0,0,29.73,1.43,6.38,6.38,0,0,1,6.82,4.08l3.37,9.17a6.32,6.32,0,0,0,8.12,3.76l17.5-6.43a6.33,6.33,0,0,0,3.76-8.12l-3.55-9.65a6.27,6.27,0,0,1,2.41-7.33,86.62,86.62,0,0,0,23.28-23.47,6.3,6.3,0,0,1,7.62-2.29l7.52,3.09a6.33,6.33,0,0,0,8.26-3.46l7.07-17.24a6.33,6.33,0,0,0-3.46-8.25l-8.9-3.65a6.36,6.36,0,0,1-3.87-6.68,86.63,86.63,0,0,0,0-20.42,6.35,6.35,0,0,1,4.08-6.77l9.68-3.56a6.33,6.33,0,0,0,3.76-8.12l-6.43-17.5a6.34,6.34,0,0,0-8.13-3.76l-9.89,3.64a6.28,6.28,0,0,1-7.37-2.45,86.46,86.46,0,0,0-19.74-20.83,6.3,6.3,0,0,1-1.88-7.67l4.95-10.69a6.34,6.34,0,0,0-3.09-8.4l-16.91-7.82a6.32,6.32,0,0,0-8.4,3.09l-5.32,11.49a6.38,6.38,0,0,1-6.85,3.64,86.54,86.54,0,0,0-24.3-.85,6.38,6.38,0,0,1-6.68-4.09l-3.74-10.17A6.32,6.32,0,0,0,386.76,253Zm28.46,59.11c.31,0,.61,0,.92,0a45.81,45.81,0,0,1,29,11.83,41.9,41.9,0,0,1,4,4.1,45.82,45.82,0,0,1,11,28.2c0,.36,0,.73,0,1.1a45.76,45.76,0,0,1-44.68,46.18,43.65,43.65,0,0,1-7-.38,45.72,45.72,0,0,1-27.79-14.44c-.5-.53-1-1.07-1.45-1.64a45.94,45.94,0,0,1-10.58-29.46,47.23,47.23,0,0,1,.3-4.91,45.82,45.82,0,0,1,14-28.08c.84-.81,1.73-1.59,2.65-2.33a45.91,45.91,0,0,1,29.59-10.2Z"/><path fill="#181c28" d="M441.33,462.43a6.88,6.88,0,0,1-6.43-4.49l-3.37-9.18a5.89,5.89,0,0,0-6.27-3.74,87.18,87.18,0,0,1-29.9-1.44,5.56,5.56,0,0,0-1.22-.13,5.78,5.78,0,0,0-5.23,3.38L385.59,454a6.86,6.86,0,0,1-9.1,3.35l-16.91-7.83a6.85,6.85,0,0,1-3.34-9.09l3.72-8a5.87,5.87,0,0,0-1.64-7,87.25,87.25,0,0,1-17-18.94,5.88,5.88,0,0,0-4.9-2.67,5.82,5.82,0,0,0-2,.35l-9.48,3.49a6.83,6.83,0,0,1-2.36.42,6.9,6.9,0,0,1-6.44-4.49l-6.43-17.5a6.86,6.86,0,0,1,4.07-8.8l9.63-3.54a5.75,5.75,0,0,0,3.77-6,86.72,86.72,0,0,1,1-26.17,5.81,5.81,0,0,0-3.54-6.42l-10.2-4.19a6.86,6.86,0,0,1-3.74-8.94l7.07-17.24a6.86,6.86,0,0,1,8.94-3.74l11.58,4.75a5.84,5.84,0,0,0,2.26.45,5.74,5.74,0,0,0,4.58-2.22,86.89,86.89,0,0,1,21.3-19.64,5.78,5.78,0,0,0,2.21-6.82L365,267.76a6.84,6.84,0,0,1,4.07-8.79l17.5-6.43a6.82,6.82,0,0,1,8.8,4.07l3.73,10.17a5.87,5.87,0,0,0,6.13,3.74,87.5,87.5,0,0,1,24.45.86A5.9,5.9,0,0,0,436,268l5.31-11.49a6.86,6.86,0,0,1,9.1-3.35L467.3,261a6.85,6.85,0,0,1,3.34,9.09l-4.94,10.69a5.8,5.8,0,0,0,1.71,7,87,87,0,0,1,19.87,21,5.8,5.8,0,0,0,4.8,2.59,5.64,5.64,0,0,0,1.95-.34l9.89-3.64a6.86,6.86,0,0,1,8.8,4.07l6.43,17.5a6.86,6.86,0,0,1-4.07,8.79l-9.68,3.56a5.83,5.83,0,0,0-3.74,6.22,87.65,87.65,0,0,1,0,20.54,5.87,5.87,0,0,0,3.55,6.13l8.9,3.65a6.86,6.86,0,0,1,3.74,8.94l-7.07,17.24a6.81,6.81,0,0,1-6.34,4.26,6.7,6.7,0,0,1-2.6-.52l-7.52-3.08a5.76,5.76,0,0,0-7,2.09,86.84,86.84,0,0,1-23.42,23.61,5.73,5.73,0,0,0-2.21,6.72l3.54,9.65a6.84,6.84,0,0,1-4.07,8.79L443.69,462A6.84,6.84,0,0,1,441.33,462.43ZM426,443.92a6.91,6.91,0,0,1,6.49,4.48l3.37,9.17a5.83,5.83,0,0,0,5.45,3.81,6,6,0,0,0,2-.36l17.5-6.43a5.86,5.86,0,0,0,3.27-3,5.75,5.75,0,0,0,.17-4.44l-3.54-9.65a6.77,6.77,0,0,1,2.61-7.94,85.88,85.88,0,0,0,23.13-23.33,6.78,6.78,0,0,1,5.65-3,6.87,6.87,0,0,1,2.61.52l7.52,3.08a5.79,5.79,0,0,0,7.57-3.16l7.07-17.24a5.81,5.81,0,0,0-3.17-7.57l-8.9-3.66a6.92,6.92,0,0,1-4.2-7.22,85.54,85.54,0,0,0,0-20.29,6.9,6.9,0,0,1,4.43-7.34l9.68-3.55a5.81,5.81,0,0,0,3.44-7.45l-6.43-17.5a5.8,5.8,0,0,0-5.45-3.8,6,6,0,0,0-2,.35L494.39,312a6.73,6.73,0,0,1-2.31.41,6.84,6.84,0,0,1-5.67-3.05,85.66,85.66,0,0,0-19.63-20.71,6.87,6.87,0,0,1-2-8.31l4.95-10.69a5.8,5.8,0,0,0-2.83-7.7L450,254.16a5.7,5.7,0,0,0-2.43-.54,5.83,5.83,0,0,0-5.28,3.37l-5.31,11.49a7,7,0,0,1-7.42,3.93,87,87,0,0,0-24.16-.84,6.92,6.92,0,0,1-7.22-4.43L394.39,257a5.82,5.82,0,0,0-5.45-3.81,5.74,5.74,0,0,0-2,.36L369.44,260A5.81,5.81,0,0,0,366,267.4l3.59,9.77a6.85,6.85,0,0,1-2.62,8.06,85.77,85.77,0,0,0-21.05,19.4,6.8,6.8,0,0,1-5.41,2.63,6.94,6.94,0,0,1-2.66-.53L326.27,302a5.71,5.71,0,0,0-2.2-.43,5.78,5.78,0,0,0-5.37,3.6l-7.07,17.24A5.81,5.81,0,0,0,314.8,330l10.2,4.19a6.85,6.85,0,0,1,4.17,7.58,86.31,86.31,0,0,0-1,25.86,6.81,6.81,0,0,1-4.45,7.15l-9.63,3.54a5.8,5.8,0,0,0-3.44,7.44l6.43,17.5a5.82,5.82,0,0,0,5.45,3.81,5.74,5.74,0,0,0,2-.36l9.48-3.48a6.68,6.68,0,0,1,2.34-.42,6.93,6.93,0,0,1,5.78,3.14A86.16,86.16,0,0,0,359,424.63a6.91,6.91,0,0,1,1.92,8.2l-3.72,8a5.81,5.81,0,0,0,2.83,7.7l16.91,7.82a5.75,5.75,0,0,0,2.44.54,5.83,5.83,0,0,0,5.27-3.37l3.32-7.17a6.83,6.83,0,0,1,6.18-4,6.51,6.51,0,0,1,1.45.16A86.34,86.34,0,0,0,425.13,444,6.77,6.77,0,0,1,426,443.92Zm-11.64-39.8a43.47,43.47,0,0,1-5.94-.4,46.25,46.25,0,0,1-28.11-14.6c-.5-.54-1-1.09-1.46-1.67a46.41,46.41,0,0,1-10.7-29.79,46.48,46.48,0,0,1,14.45-33.37c.8-.77,1.7-1.57,2.68-2.35a46.47,46.47,0,0,1,29.93-10.33c.31,0,.63,0,.95,0a46.33,46.33,0,0,1,29.32,12,44.14,44.14,0,0,1,4,4.15,46.29,46.29,0,0,1,11.11,28.53c0,.35,0,.73,0,1.11a46.42,46.42,0,0,1-9.88,29.05,47,47,0,0,1-5.81,6.14,46.48,46.48,0,0,1-29.5,11.52Zm.05-91.46A45.32,45.32,0,0,0,386,322.75c-.95.77-1.83,1.54-2.61,2.3a45.21,45.21,0,0,0-13.84,27.76,47.09,47.09,0,0,0-.29,4.86,45.31,45.31,0,0,0,10.46,29.12c.46.56.93,1.09,1.42,1.61a45.19,45.19,0,0,0,27.48,14.28,42.78,42.78,0,0,0,6.89.38A45.35,45.35,0,0,0,444.3,391.8a46.19,46.19,0,0,0,5.68-6,45.49,45.49,0,0,0,9.65-28.4c0-.36,0-.71,0-1.07a45.35,45.35,0,0,0-10.85-27.89,42.19,42.19,0,0,0-4-4.05,45.33,45.33,0,0,0-28.67-11.7l-.9,0Z"/><path d="M424.74,301.29l-17-.63h0l-.44,11.93h0a47.11,47.11,0,0,0-19.57,7.24h0l-9.26-9.13h0l-12,12.14h0l8.81,8.69h0a47.35,47.35,0,0,0-8.11,17.76h0l-11.81-.44h0l-.63,17h0l11.75.44h0a47.13,47.13,0,0,0,6.42,18h0l-8.06,7.49h0l11.6,12.49h0l7.78-7.22h0a47.19,47.19,0,0,0,19.57,9.13h0l-.43,11.59h0l17,.63h0l.43-11.76h0a47.17,47.17,0,0,0,21.47-9.1h0l7.67,7.56h0l12-12.13h0l-8.11-8h0A47.09,47.09,0,0,0,460,369.81h0l11.87.44h0l.63-17h0l-11.92-.44h0a47.28,47.28,0,0,0-7.57-19.55h0l9.32-8.65h0l-11.59-12.5h0L441.17,321h0a47.31,47.31,0,0,0-16.88-7.61h0l.45-12.1Zm23.73,57.76a34.84,34.84,0,1,1-31.71-34.2A34.85,34.85,0,0,1,448.47,359.05Z"/><path fill="#ffd101" d="M425.32,297.83l-17-.63h0l-.45,11.93h0a47.3,47.3,0,0,0-19.57,7.24h0L379,307.24h0l-12,12.14h0l8.81,8.69h0a47.17,47.17,0,0,0-8.11,17.77h0l-11.81-.44h0l-.63,17h0l11.74.43h0a47.25,47.25,0,0,0,6.43,18h0l-8.06,7.49h0L377,400.89h0l7.78-7.22h0a47.3,47.3,0,0,0,19.57,9.13h0l-.43,11.59h0l17,.63h0l.44-11.76h0a47.17,47.17,0,0,0,21.47-9.1h0l7.67,7.57h0l12-12.14h0l-8.1-8h0a46.91,46.91,0,0,0,6.22-15.24h0l11.86.44h0l.64-17h0l-11.93-.44h0a47.1,47.1,0,0,0-7.57-19.54h0l9.33-8.66h0l-11.6-12.49h0l-9.61,8.92h0a47.26,47.26,0,0,0-16.87-7.61h0l.45-12.1Z"/><path fill="#191412" d="M421.44,415.54l-18-.67.44-11.67a48,48,0,0,1-19-8.87L377,401.6,364.7,388.37l8.13-7.54a47.35,47.35,0,0,1-6.22-17.47l-11.83-.44.67-18,11.89.44a47.51,47.51,0,0,1,7.85-17.2l-8.86-8.73L379,306.54l9.33,9.2a47.82,47.82,0,0,1,19-7l.45-12,18,.67-.46,12.19a47.5,47.5,0,0,1,16.32,7.36l9.68-9,12.28,13.23-9.38,8.7a48.05,48.05,0,0,1,7.34,19l12,.44-.67,18L461,366.87a47.32,47.32,0,0,1-6,14.65l8.18,8.06-12.67,12.85-7.72-7.61a47.92,47.92,0,0,1-20.94,8.87Zm-17-1.63,16,.6.43-11.68.41-.06a46.86,46.86,0,0,0,21.24-9l.35-.26,7.62,7.52,11.27-11.43-8-7.92.22-.34a46.49,46.49,0,0,0,6.15-15.08l.09-.41,11.78.44.6-16-11.84-.44-.06-.41a47,47,0,0,0-7.49-19.33l-.24-.36,9.27-8.61-10.91-11.76-9.55,8.86-.33-.23a46.43,46.43,0,0,0-16.69-7.53l-.41-.09.45-12-16-.59-.44,11.85-.42.06a47,47,0,0,0-19.36,7.16l-.34.22L379,308l-11.26,11.43,8.76,8.64-.26.35a46.36,46.36,0,0,0-8,17.57l-.09.41-11.73-.44-.6,16,11.67.43.06.41a46.46,46.46,0,0,0,6.36,17.86l.21.34-8,7.43L377,400.19l7.73-7.18.33.27a47,47,0,0,0,19.36,9l.42.09Z"/><path fill="#ffd101" d="M449.05,355.59a34.84,34.84,0,1,1-31.71-34.19A34.85,34.85,0,0,1,449.05,355.59Z"/><path fill="#191412" d="M414.23,391.44c-1,0-2.11-.05-3.15-.14a35.63,35.63,0,0,1-32.21-34.65,35.36,35.36,0,0,1,35.31-35.9c1.06,0,2.14.05,3.2.15a35.63,35.63,0,0,1,32.17,34.69,35.37,35.37,0,0,1-35.32,35.85Zm-.05-69.69a34.35,34.35,0,0,0-34.31,34.88,34.61,34.61,0,0,0,31.29,33.67c1,.09,2,.14,3.07.14a34.37,34.37,0,0,0,34.32-34.84,34.63,34.63,0,0,0-31.26-33.71C416.26,321.8,415.21,321.75,414.18,321.75Z"/><path fill="#eae4d8" d="M676.58,446.06l-17-.64h0l-.44,11.93h0a47.11,47.11,0,0,0-19.57,7.24h0l-9.26-9.13h0l-12,12.14h0l8.8,8.69h0A47.35,47.35,0,0,0,619,494.06h0l-11.8-.44h0l-.64,17h0l11.75.44h0a47.14,47.14,0,0,0,6.43,18h0l-8.07,7.49h0l11.6,12.49h0l7.78-7.22h0A47.19,47.19,0,0,0,655.62,551h0l-.43,11.59h0l17,.63h0l.43-11.76h0a47.23,47.23,0,0,0,21.47-9.1h0L701.8,550h0l12-12.13h0l-8.11-8h0a47.33,47.33,0,0,0,6.23-15.24h0l11.86.44h0l.63-17h0l-11.92-.44h0A47.28,47.28,0,0,0,704.89,478h0l9.32-8.65h0l-11.59-12.5h0L693,465.77h0a47.31,47.31,0,0,0-16.88-7.61h0l.45-12.1Zm23.73,57.76a34.84,34.84,0,1,1-31.71-34.2A34.85,34.85,0,0,1,700.31,503.82Z"/><path fill="#1b264a" d="M672.73,563.79l-18.09-.67.44-11.67a48.09,48.09,0,0,1-19-8.86l-7.84,7.27L615.93,536.6l8.14-7.55a47.57,47.57,0,0,1-6.22-17.44L606,511.17l.67-18.09,11.9.44a47.5,47.5,0,0,1,7.83-17.17l-8.86-8.74,12.71-12.88,9.33,9.2a47.26,47.26,0,0,1,19-7l.45-12,18.09.67-.46,12.2A47.51,47.51,0,0,1,693,465.09l9.69-9L715,469.36l-9.39,8.71a48.13,48.13,0,0,1,7.34,19l12,.45-.68,18.08-12-.44a47.36,47.36,0,0,1-6,14.62l8.18,8.07-12.7,12.88-7.73-7.61a47.91,47.91,0,0,1-20.91,8.86Zm-17-1.68,16,.6.44-11.67.42-.07a46.8,46.8,0,0,0,21.23-9l.37-.28,7.62,7.52L713,537.82l-8-7.92.23-.36a46.44,46.44,0,0,0,6.15-15.07l.09-.43,11.78.44.6-16L712,498.05l-.06-.44a47.06,47.06,0,0,0-7.49-19.32l-.25-.38,9.27-8.6-10.88-11.72-9.54,8.85-.35-.25A46.54,46.54,0,0,0,676,458.67l-.43-.1.45-12-16-.59-.44,11.85-.44.06A46.35,46.35,0,0,0,639.81,465l-.35.23-9.18-9.06L619.05,467.6l8.75,8.64-.26.37a46.2,46.2,0,0,0-8,17.57l-.1.42-11.72-.43-.59,16,11.66.43.06.44a46.52,46.52,0,0,0,6.35,17.84l.23.37-8,7.41,10.89,11.73,7.72-7.17.35.28a47.13,47.13,0,0,0,19.35,9l.44.09Zm9.77-22.42c-1,0-2.11-.05-3.16-.14a35.65,35.65,0,0,1-32.23-34.68A35.36,35.36,0,0,1,665.45,469c1.06,0,2.14.05,3.2.14a35.65,35.65,0,0,1,32.19,34.71,35.38,35.38,0,0,1-35.34,35.88Zm0-69.68a34.32,34.32,0,0,0-34.29,34.85,34.59,34.59,0,0,0,31.27,33.64c1,.09,2.05.14,3.07.14a34.33,34.33,0,0,0,34.29-34.81,34.6,34.6,0,0,0-31.23-33.68C667.52,470.05,666.48,470,665.45,470Z"/><path fill="#fff" d="M577.06,240.88l-28.85,9.18a5,5,0,0,0-3.23,6.25l5.79,18.19a5,5,0,0,1-2.28,5.82,110.71,110.71,0,0,0-31.78,26.79,5,5,0,0,1-5.93,1.35L491,299.32a5,5,0,0,0-6.6,2.42l-12.71,27.47a5,5,0,0,0,2.43,6.6l18.14,8.4a4.93,4.93,0,0,1,2.72,5.73,111.34,111.34,0,0,0-3.13,38,5,5,0,0,1-3.44,5.16l-18,5.72a5,5,0,0,0-3.23,6.25l9.18,28.85a5,5,0,0,0,6.25,3.23l17.79-5.66a5,5,0,0,1,5.8,2.24,110.91,110.91,0,0,0,23.8,29,5,5,0,0,1,1.13,6l-7.81,15.09a5,5,0,0,0,2.13,6.71l26.87,13.9a5,5,0,0,0,6.71-2.13l7.3-14.12a5,5,0,0,1,5.79-2.49,111.32,111.32,0,0,0,42.89,3.93,4.93,4.93,0,0,1,5.21,3.43l5.54,17.41a5,5,0,0,0,6.25,3.23l28.85-9.18a5,5,0,0,0,3.23-6.25l-5.68-17.86a5,5,0,0,1,2.19-5.78,111.43,111.43,0,0,0,34.66-32,5,5,0,0,1,6.14-1.65l14.72,6.82a5,5,0,0,0,6.6-2.43l12.71-27.46a5,5,0,0,0-2.43-6.61l-16.3-7.54a4.93,4.93,0,0,1-2.8-5.37,111.2,111.2,0,0,0,1.35-31.13,4.94,4.94,0,0,1,3.44-5.18l18-5.74a5,5,0,0,0,3.23-6.25l-9.17-28.85A5,5,0,0,0,724.6,318l-18.22,5.79a4.94,4.94,0,0,1-5.78-2.22,111.41,111.41,0,0,0-27.25-31.43A5,5,0,0,1,672,284l9.6-18.55a5,5,0,0,0-2.14-6.7l-26.87-13.9a5,5,0,0,0-6.7,2.13l-10.11,19.52a5,5,0,0,1-5.56,2.55,111.5,111.5,0,0,0-35.89-2.83,4.94,4.94,0,0,1-5.12-3.44l-5.93-18.64A5,5,0,0,0,577.06,240.88ZM553,434.72l21.14-18.21a5,5,0,0,1,5.93-.42,44.91,44.91,0,0,0,5.23,2.75,5,5,0,0,1,3,5l-2.36,28a5,5,0,0,1-6.45,4.33,82.39,82.39,0,0,1-26.29-13.68A5,5,0,0,1,553,434.72Zm96,4.47a5,5,0,0,1-1,7.61,82.45,82.45,0,0,1-38.11,12.74,5,5,0,0,1-5.39-5.38l2.32-27.52a5,5,0,0,1,4.23-4.5,46.05,46.05,0,0,0,13.2-4.35,4.94,4.94,0,0,1,5.85,1.1Zm33.67-38.87a82.64,82.64,0,0,1-12.27,25.25,5,5,0,0,1-7.7.49l-19-20.47a5,5,0,0,1-.64-5.83,46,46,0,0,0,2.38-4.89,5,5,0,0,1,5-3.12l27.9,2.22A5,5,0,0,1,682.62,400.32Zm-157.3,2.16a82.3,82.3,0,0,1-3.26-14.9A5,5,0,0,1,527.4,382l27.83,2.2a4.92,4.92,0,0,1,4.42,3.73c.27,1.12.58,2.23.93,3.35a45,45,0,0,0,2.14,5.47,5,5,0,0,1-1.21,6l-21,18.09a5,5,0,0,1-7.55-1.27A83,83,0,0,1,525.32,402.48ZM682,352.66a82.17,82.17,0,0,1,3.5,16.95,5,5,0,0,1-5.35,5.47l-27.66-2.2A4.93,4.93,0,0,1,648,369a44.93,44.93,0,0,0-1.3-5.07q-.66-2-1.47-4a5,5,0,0,1,1.29-5.78l21.16-18.23a5,5,0,0,1,7.59,1.33A82.54,82.54,0,0,1,682,352.66Zm-157.82,4.08a82.7,82.7,0,0,1,13.67-28.35,5,5,0,0,1,7.66-.45l18.9,20.31a5,5,0,0,1,.57,6,44.85,44.85,0,0,0-3.66,7.62,5,5,0,0,1-5.09,3.32L528.54,363A5,5,0,0,1,524.13,356.74Zm131.58-35.2-21,18.09a5,5,0,0,1-6.08.32,46,46,0,0,0-10.35-5.11,4.91,4.91,0,0,1-3.36-5l2.33-27.59a5,5,0,0,1,6.21-4.4,82.54,82.54,0,0,1,32.12,16.07A5,5,0,0,1,655.71,321.54Zm-57.14-20.1-2.36,28a5,5,0,0,1-3.77,4.4c-.83.22-1.67.46-2.5.72a45.85,45.85,0,0,0-5.56,2.18,5,5,0,0,1-5.84-1.07l-19-20.44a5,5,0,0,1,1.05-7.65A82.84,82.84,0,0,1,593,296.08,5,5,0,0,1,598.57,301.44Z"/><path fill="#181c28" d="M630.56,514.44a5.47,5.47,0,0,1-5.24-3.84l-5.54-17.4a4.41,4.41,0,0,0-4.66-3.07A112.16,112.16,0,0,1,572,486.19a4.31,4.31,0,0,0-1.23-.18,4.43,4.43,0,0,0-3.94,2.4l-7.3,14.12a5.5,5.5,0,0,1-4.89,3,5.58,5.58,0,0,1-2.53-.61L525.27,491a5.51,5.51,0,0,1-2.36-7.41l7.81-15.09a4.41,4.41,0,0,0-1-5.38A111.46,111.46,0,0,1,505.8,434a4.5,4.5,0,0,0-5.19-2l-17.78,5.66a5.65,5.65,0,0,1-1.67.26,5.48,5.48,0,0,1-5.24-3.83l-9.18-28.85a5.51,5.51,0,0,1,3.58-6.91l18-5.72a4.4,4.4,0,0,0,3.07-4.61,111.7,111.7,0,0,1,3.16-38.19,4.44,4.44,0,0,0-2.44-5.13l-18.14-8.39a5.5,5.5,0,0,1-2.68-7.3L484,301.52a5.52,5.52,0,0,1,5-3.19,5.4,5.4,0,0,1,2.3.51L511,308a4.49,4.49,0,0,0,5.3-1.21,111.28,111.28,0,0,1,31.93-26.91,4.45,4.45,0,0,0,2-5.2l-5.79-18.19a5.51,5.51,0,0,1,3.57-6.91l28.86-9.18a5.53,5.53,0,0,1,1.66-.26,5.47,5.47,0,0,1,5.24,3.84l5.93,18.64a4.42,4.42,0,0,0,4.58,3.08,112.17,112.17,0,0,1,36,2.84,4.47,4.47,0,0,0,5-2.28l10.1-19.52a5.48,5.48,0,0,1,4.89-3,5.55,5.55,0,0,1,2.52.62l26.88,13.9a5.51,5.51,0,0,1,2.35,7.42l-9.59,18.54a4.44,4.44,0,0,0,1.18,5.51,111.45,111.45,0,0,1,27.37,31.58,4.49,4.49,0,0,0,5.17,2l18.22-5.79a5.26,5.26,0,0,1,1.67-.27,5.49,5.49,0,0,1,5.24,3.84l9.17,28.85a5.51,5.51,0,0,1-3.57,6.91l-18,5.74a4.44,4.44,0,0,0-3.08,4.63,111.55,111.55,0,0,1-1.35,31.27,4.42,4.42,0,0,0,2.5,4.81l16.3,7.54a5.5,5.5,0,0,1,2.68,7.3l-12.7,27.46a5.52,5.52,0,0,1-5,3.19,5.4,5.4,0,0,1-2.3-.51l-14.72-6.81a4.51,4.51,0,0,0-5.49,1.47,111.14,111.14,0,0,1-34.83,32.15,4.39,4.39,0,0,0-1.95,5.16l5.68,17.86a5.48,5.48,0,0,1-.36,4.2,5.43,5.43,0,0,1-3.21,2.71l-28.86,9.18A5.53,5.53,0,0,1,630.56,514.44Zm-15-25.38a5.46,5.46,0,0,1,5.2,3.82l5.54,17.41a4.45,4.45,0,0,0,5.59,2.89L660.76,504a4.45,4.45,0,0,0,2.89-5.59L658,480.54a5.43,5.43,0,0,1,2.42-6.38,110.17,110.17,0,0,0,34.5-31.84,5.49,5.49,0,0,1,4.49-2.33,5.4,5.4,0,0,1,2.3.51l14.72,6.81a4.46,4.46,0,0,0,5.91-2.17L735,417.68a4.45,4.45,0,0,0-2.17-5.91l-16.3-7.54a5.47,5.47,0,0,1-3.1-6,110.61,110.61,0,0,0,1.34-31,5.5,5.5,0,0,1,3.81-5.73l18-5.74a4.45,4.45,0,0,0,2.89-5.59l-9.17-28.85a4.45,4.45,0,0,0-5.59-2.89l-18.22,5.79a5.55,5.55,0,0,1-1.67.26,5.49,5.49,0,0,1-4.73-2.71A110.56,110.56,0,0,0,673,290.55a5.49,5.49,0,0,1-1.46-6.82l9.59-18.54a4.44,4.44,0,0,0-1.91-6l-26.87-13.91a4.45,4.45,0,0,0-6,1.91l-10.1,19.52a5.46,5.46,0,0,1-4.86,3,5.71,5.71,0,0,1-1.3-.16,111.24,111.24,0,0,0-35.72-2.81,5.46,5.46,0,0,1-5.66-3.81l-5.93-18.64a4.45,4.45,0,0,0-5.59-2.9l-28.85,9.18a4.46,4.46,0,0,0-2.89,5.59l5.79,18.19a5.51,5.51,0,0,1-2.53,6.44,110.23,110.23,0,0,0-31.63,26.66,5.45,5.45,0,0,1-4.23,2,5.6,5.6,0,0,1-2.32-.51l-19.75-9.15A4.46,4.46,0,0,0,484.9,302l-12.7,27.47a4.45,4.45,0,0,0,2.17,5.9l18.14,8.4a5.47,5.47,0,0,1,3,6.34,110.4,110.4,0,0,0-3.12,37.83,5.46,5.46,0,0,1-3.81,5.72l-18,5.71a4.46,4.46,0,0,0-2.89,5.59l9.18,28.85a4.45,4.45,0,0,0,5.59,2.89L500.3,431a5.55,5.55,0,0,1,1.67-.26,5.46,5.46,0,0,1,4.74,2.74,110.53,110.53,0,0,0,23.69,28.83,5.45,5.45,0,0,1,1.26,6.65l-7.82,15.1a4.46,4.46,0,0,0,1.91,6L552.63,504a4.46,4.46,0,0,0,6-1.91l7.31-14.12a5.47,5.47,0,0,1,4.87-3,5.34,5.34,0,0,1,1.53.22A111.24,111.24,0,0,0,615,489.09Zm-6.13-29a5.6,5.6,0,0,1-4.1-1.8,5.4,5.4,0,0,1-1.42-4.16l2.32-27.53a5.55,5.55,0,0,1,4.67-5,45.7,45.7,0,0,0,6.24-1.51,44.7,44.7,0,0,0,6.8-2.79,5.59,5.59,0,0,1,6.48,1.21l18.89,20.31a5.5,5.5,0,0,1,1.43,4.43,5.59,5.59,0,0,1-2.52,4,83.08,83.08,0,0,1-38.36,12.81Zm16.92-42.29a4.24,4.24,0,0,0-1.94.47,46.63,46.63,0,0,1-13.34,4.4,4.52,4.52,0,0,0-3.8,4L605,454.2a4.4,4.4,0,0,0,1.16,3.37A4.53,4.53,0,0,0,609.8,459a82.35,82.35,0,0,0,37.87-12.66,4.5,4.5,0,0,0,2.05-3.23,4.45,4.45,0,0,0-1.16-3.58l-18.89-20.31A4.54,4.54,0,0,0,626.37,417.79ZM581,456.87a5.66,5.66,0,0,1-1.64-.24,82.74,82.74,0,0,1-26.46-13.77,5.52,5.52,0,0,1-2.14-4.23,5.46,5.46,0,0,1,1.9-4.31l21.15-18.21a5.66,5.66,0,0,1,6.54-.47,44.62,44.62,0,0,0,5.17,2.72,5.56,5.56,0,0,1,3.32,5.52l-2.35,27.95A5.54,5.54,0,0,1,581,456.87Zm-3.63-41a4.45,4.45,0,0,0-2.88,1.06L553.3,435.12a4.38,4.38,0,0,0-1.54,3.48,4.45,4.45,0,0,0,1.73,3.43,81.68,81.68,0,0,0,26.13,13.59,4.29,4.29,0,0,0,1.33.2,4.48,4.48,0,0,0,4.44-4.08l2.36-27.95a4.53,4.53,0,0,0-2.7-4.47,44.55,44.55,0,0,1-5.3-2.79A4.68,4.68,0,0,0,577.32,415.84Zm89,12.34a5.48,5.48,0,0,1-4-1.76l-19-20.47a5.49,5.49,0,0,1-.72-6.44,46,46,0,0,0,2.36-4.84,5.5,5.5,0,0,1,5.5-3.44l27.9,2.21a5.51,5.51,0,0,1,4.85,7,82.54,82.54,0,0,1-12.35,25.41A5.52,5.52,0,0,1,666.29,428.18Zm-16.35-35.92a4.47,4.47,0,0,0-4.11,2.81,47,47,0,0,1-2.4,4.95,4.44,4.44,0,0,0,.56,5.21l19,20.48a4.46,4.46,0,0,0,6.89-.44,81.69,81.69,0,0,0,12.19-25.09,4.46,4.46,0,0,0-3.92-5.69l-27.91-2.22ZM537.28,422.54a5.52,5.52,0,0,1-4.77-2.73,83.19,83.19,0,0,1-11-32.16,5.59,5.59,0,0,1,1.34-4.35,5.52,5.52,0,0,1,4.56-1.84l27.83,2.21a5.41,5.41,0,0,1,4.89,4.13c.26,1.09.57,2.2.92,3.31a44.61,44.61,0,0,0,2.11,5.41,5.52,5.52,0,0,1-1.34,6.6l-21,18.08A5.5,5.5,0,0,1,537.28,422.54ZM527,382.5a4.46,4.46,0,0,0-4.41,5,83.05,83.05,0,0,0,3.24,14.8,82,82,0,0,0,7.59,16.95,4.45,4.45,0,0,0,6.76,1.14l21-18.09a4.48,4.48,0,0,0,1.08-5.35,46.27,46.27,0,0,1-2.16-5.55c-.36-1.13-.68-2.27-.94-3.38a4.36,4.36,0,0,0-3.95-3.32l-27.84-2.21Zm153.51-6.88-.44,0-27.66-2.2a5.46,5.46,0,0,1-4.95-4.34,44.5,44.5,0,0,0-1.28-5c-.43-1.35-.92-2.68-1.46-3.94a5.55,5.55,0,0,1,1.44-6.39l21.15-18.23a5.52,5.52,0,0,1,8.4,1.48A83,83,0,0,1,686,369.55a5.51,5.51,0,0,1-5.47,6.07Zm-9.61-40.43a4.44,4.44,0,0,0-2.9,1.09l-21.16,18.23a4.5,4.5,0,0,0-1.15,5.18c.55,1.29,1.05,2.65,1.49,4a44.87,44.87,0,0,1,1.31,5.13,4.41,4.41,0,0,0,4,3.5l27.66,2.2a4.47,4.47,0,0,0,4.79-4.89,82.66,82.66,0,0,0-10.14-32.19A4.5,4.5,0,0,0,670.89,335.19ZM556.57,365.76h-.43l-27.64-2.2a5.46,5.46,0,0,1-4-2.3,5.58,5.58,0,0,1-.84-4.64,82.67,82.67,0,0,1,13.76-28.53,5.51,5.51,0,0,1,8.47-.5l18.9,20.31a5.52,5.52,0,0,1,.63,6.66,44.54,44.54,0,0,0-3.62,7.53A5.59,5.59,0,0,1,556.57,365.76Zm-14.73-38.88a4.47,4.47,0,0,0-3.62,1.83,81.48,81.48,0,0,0-13.58,28.17,4.48,4.48,0,0,0,3.94,5.62l27.64,2.2a4.51,4.51,0,0,0,4.55-3,46,46,0,0,1,3.71-7.71,4.48,4.48,0,0,0-.5-5.4l-18.9-20.31A4.4,4.4,0,0,0,541.84,326.88Zm89.65,14.47a5.64,5.64,0,0,1-3.15-1,45.3,45.3,0,0,0-10.23-5.05,5.45,5.45,0,0,1-3.72-5.58l2.33-27.59a5.48,5.48,0,0,1,5.5-5,5.63,5.63,0,0,1,1.36.17,83.46,83.46,0,0,1,32.33,16.17A5.56,5.56,0,0,1,658,317.7a5.45,5.45,0,0,1-1.91,4.23l-21,18.1A5.46,5.46,0,0,1,631.49,341.35Zm-9.27-43.17a4.43,4.43,0,0,0-4.45,4.08l-2.33,27.58a4.41,4.41,0,0,0,3,4.51,46.34,46.34,0,0,1,10.47,5.16,4.59,4.59,0,0,0,5.45-.28l21-18.09a4.45,4.45,0,0,0,1.54-3.43,4.52,4.52,0,0,0-1.67-3.43,82.35,82.35,0,0,0-31.91-16A4.69,4.69,0,0,0,622.22,298.18Zm-40.05,39.55a5.4,5.4,0,0,1-4-1.73l-19-20.44a5.52,5.52,0,0,1,1.16-8.45,82.89,82.89,0,0,1,18.26-8.35,83.92,83.92,0,0,1,14.32-3.2,5.51,5.51,0,0,1,6.21,5.92l-2.35,28a5.55,5.55,0,0,1-4.17,4.87c-.81.21-1.64.45-2.47.71a45,45,0,0,0-5.49,2.16A5.94,5.94,0,0,1,582.17,337.73Zm11.44-41.16q-.3,0-.6,0A82.36,82.36,0,0,0,560.85,308a4.49,4.49,0,0,0-2.09,3.21,4.44,4.44,0,0,0,1.15,3.63l19,20.44a4.35,4.35,0,0,0,3.24,1.4,4.73,4.73,0,0,0,2-.44,46.16,46.16,0,0,1,5.62-2.21c.85-.27,1.7-.51,2.53-.72a4.5,4.5,0,0,0,3.38-3.95l2.35-28a4.4,4.4,0,0,0-1.15-3.39A4.47,4.47,0,0,0,593.61,296.57Z"/><path d="M709.57,194.31l-12.17,4.47a4.4,4.4,0,0,0-2.61,5.65l2.49,6.8a4.36,4.36,0,0,1-1.68,5.17A60.27,60.27,0,0,0,680.87,230a4.43,4.43,0,0,1-5.18,1.35l-8.06-3.3a4.39,4.39,0,0,0-5.74,2.4l-4.92,12a4.4,4.4,0,0,0,2.4,5.74l7.09,2.92a4.4,4.4,0,0,1,2.69,4.87,60.18,60.18,0,0,0-.68,18.1,4.39,4.39,0,0,1-2.86,4.59l-6.7,2.46a4.4,4.4,0,0,0-2.61,5.65l4.47,12.17a4.41,4.41,0,0,0,5.66,2.62l6.59-2.43a4.44,4.44,0,0,1,5.22,1.75A60.29,60.29,0,0,0,690,314a4.42,4.42,0,0,1,1.24,5.27l-2.59,5.59a4.41,4.41,0,0,0,2.15,5.85l11.76,5.44a4.41,4.41,0,0,0,5.85-2.15l2.31-5a4.37,4.37,0,0,1,4.9-2.46,60.11,60.11,0,0,0,20.67,1,4.45,4.45,0,0,1,4.75,2.84l2.34,6.38a4.42,4.42,0,0,0,5.65,2.62l12.18-4.48a4.4,4.4,0,0,0,2.61-5.65l-2.46-6.71a4.35,4.35,0,0,1,1.67-5.1,60.2,60.2,0,0,0,16.2-16.33,4.38,4.38,0,0,1,5.3-1.59l5.23,2.15a4.42,4.42,0,0,0,5.75-2.4l4.91-12a4.39,4.39,0,0,0-2.4-5.74l-6.2-2.54a4.45,4.45,0,0,1-2.69-4.65,60.22,60.22,0,0,0,0-14.2,4.45,4.45,0,0,1,2.85-4.72l6.73-2.47a4.4,4.4,0,0,0,2.61-5.65l-4.47-12.18a4.4,4.4,0,0,0-5.65-2.61L784.32,235a4.35,4.35,0,0,1-5.12-1.7,60.42,60.42,0,0,0-13.74-14.5,4.36,4.36,0,0,1-1.3-5.33L767.6,206a4.4,4.4,0,0,0-2.15-5.84l-11.76-5.44a4.41,4.41,0,0,0-5.85,2.15l-3.7,8a4.42,4.42,0,0,1-4.76,2.53,60.47,60.47,0,0,0-16.91-.59,4.42,4.42,0,0,1-4.64-2.84l-2.61-7.08A4.39,4.39,0,0,0,709.57,194.31Zm19.81,41.12.63,0a31.86,31.86,0,0,1,20.18,8.23,28.8,28.8,0,0,1,2.78,2.85,31.81,31.81,0,0,1,7.64,19.62c0,.25,0,.51,0,.76a32,32,0,0,1-6.8,20,32.51,32.51,0,0,1-4,4.22,31.84,31.84,0,0,1-20.29,7.93,30.15,30.15,0,0,1-4.85-.27,31.82,31.82,0,0,1-19.33-10c-.35-.38-.68-.75-1-1.15A32,32,0,0,1,697,267.1a32.37,32.37,0,0,1,.21-3.42,31.87,31.87,0,0,1,9.73-19.53c.59-.57,1.21-1.11,1.85-1.62a31.82,31.82,0,0,1,20.59-7.1Z"/><path fill="#00a074" d="M710.87,189.42l-12.17,4.47a4.4,4.4,0,0,0-2.61,5.65l2.49,6.8a4.36,4.36,0,0,1-1.68,5.17,60.11,60.11,0,0,0-14.73,13.59,4.42,4.42,0,0,1-5.18,1.34l-8.06-3.3a4.39,4.39,0,0,0-5.74,2.4l-4.92,12a4.41,4.41,0,0,0,2.4,5.75l7.1,2.91a4.41,4.41,0,0,1,2.68,4.87,60.2,60.2,0,0,0-.68,18.1,4.39,4.39,0,0,1-2.86,4.59l-6.7,2.46a4.4,4.4,0,0,0-2.61,5.65L662.08,294a4.39,4.39,0,0,0,5.65,2.62l6.59-2.43a4.44,4.44,0,0,1,5.22,1.75,60.29,60.29,0,0,0,11.78,13.11,4.42,4.42,0,0,1,1.24,5.27L690,319.94a4.41,4.41,0,0,0,2.15,5.85l11.77,5.44a4.4,4.4,0,0,0,5.84-2.15l2.31-5a4.37,4.37,0,0,1,4.9-2.46,60.15,60.15,0,0,0,20.68,1,4.43,4.43,0,0,1,4.74,2.84l2.35,6.38a4.39,4.39,0,0,0,5.65,2.62L762.53,330a4.4,4.4,0,0,0,2.61-5.65l-2.46-6.71a4.37,4.37,0,0,1,1.67-5.1,60.2,60.2,0,0,0,16.2-16.33,4.38,4.38,0,0,1,5.3-1.59l5.23,2.15a4.41,4.41,0,0,0,5.75-2.4l4.91-12a4.39,4.39,0,0,0-2.4-5.74l-6.2-2.54a4.45,4.45,0,0,1-2.69-4.65,60.22,60.22,0,0,0,0-14.2,4.43,4.43,0,0,1,2.85-4.71L800,248a4.4,4.4,0,0,0,2.61-5.65l-4.47-12.17a4.4,4.4,0,0,0-5.65-2.62l-6.89,2.53a4.35,4.35,0,0,1-5.12-1.7,60.42,60.42,0,0,0-13.74-14.5,4.37,4.37,0,0,1-1.3-5.33l3.44-7.43a4.41,4.41,0,0,0-2.15-5.85L755,189.87a4.41,4.41,0,0,0-5.85,2.15l-3.7,8a4.42,4.42,0,0,1-4.76,2.53,60.85,60.85,0,0,0-16.91-.59,4.41,4.41,0,0,1-4.64-2.84l-2.6-7.08A4.41,4.41,0,0,0,710.87,189.42Zm19.81,41.12.63,0a31.86,31.86,0,0,1,20.18,8.23,30.07,30.07,0,0,1,2.79,2.85,31.91,31.91,0,0,1,5.7,9.74,31.32,31.32,0,0,1,1.93,9.88c0,.26,0,.51,0,.77a31.84,31.84,0,0,1-31.08,32.13,30.21,30.21,0,0,1-4.86-.27,31.82,31.82,0,0,1-19.33-10c-.35-.37-.68-.75-1-1.14a31.83,31.83,0,0,1,2.59-43.45,23.67,23.67,0,0,1,1.84-1.62,31.82,31.82,0,0,1,20.59-7.1Z"/><path d="M796.53,351.72a2.15,2.15,0,0,0-1.39-.16l-27.86,6.13a34.47,34.47,0,0,0-37.1-9.46,35.15,35.15,0,0,0-21.31,44.67,34.62,34.62,0,0,0,44.22,21.53,35,35,0,0,0,23-28.62l79.45-25.2c3.2-1,5.09-4.14,4.2-7,0,0-10-14.05-19.8-13.46l-9.48.76a6.06,6.06,0,0,0-3.69,3.3,5.6,5.6,0,0,1-7.92,2.59l-1.66-.94a2.13,2.13,0,0,0-1.74-.19l-8,2.54a2.19,2.19,0,0,0-1,.62L802.78,353a2.16,2.16,0,0,1-2.55.52Zm-79.34,36.57a9.87,9.87,0,0,1,6-12.54,9.73,9.73,0,0,1,12.43,6,9.89,9.89,0,0,1-6,12.55A9.73,9.73,0,0,1,717.19,388.29Z"/><path fill="#eda7cc" d="M798,355.81a2.15,2.15,0,0,0-1.39-.16l-27.86,6.13a34.47,34.47,0,0,0-37.1-9.46A35.15,35.15,0,0,0,710.3,397a34.61,34.61,0,0,0,44.21,21.53,35,35,0,0,0,23-28.62L857,364.71c3.2-1,5.09-4.15,4.2-7,0,0-10-14-19.8-13.46l-9.48.76a6,6,0,0,0-3.69,3.3,5.6,5.6,0,0,1-7.92,2.59L818.6,350a2.13,2.13,0,0,0-1.74-.19l-8,2.54a2.19,2.19,0,0,0-1,.62L804.21,357a2.14,2.14,0,0,1-2.55.52Zm-79.34,36.57a9.87,9.87,0,0,1,6-12.54,9.73,9.73,0,0,1,12.43,6,9.88,9.88,0,0,1-6,12.55A9.73,9.73,0,0,1,718.62,392.38Z"/><path fill="#ffd101" d="M650.33,247.27a53,53,0,0,1-8.4,34.3,88.26,88.26,0,0,0-14.24,54.51l.13,1.9c-2.63,10.16-45.58,10.95-49.65,3.44L578,337.6c-1.08-15.55-8-37.12-18.85-48.37a53.08,53.08,0,0,1,35.42-89.72C622.18,198,647.62,219.77,650.33,247.27Z"/><path fill="#191412" d="M599.37,347c-9.09,0-19.55-1.39-21.66-5.27l-.06-.11-.16-3.95c-1.06-15.28-7.82-36.69-18.69-48A53.61,53.61,0,0,1,594.57,199c.91,0,1.84-.07,2.76-.07,26.89,0,50.9,21.67,53.52,48.31a53.12,53.12,0,0,1-8.48,34.64,88.25,88.25,0,0,0-14.16,54.19l.14,2,0,.08C626.76,344.18,612.22,347,599.37,347Zm-20.68-5.68c1.67,2.77,9.94,4.63,20.68,4.63,12.79,0,26.43-2.74,27.92-8l-.13-1.81a89.39,89.39,0,0,1,14.33-54.84,52,52,0,0,0,8.31-34C647.23,221.2,623.69,200,597.33,200c-.9,0-1.81,0-2.71.07a52.56,52.56,0,0,0-35.07,88.84c11.05,11.51,17.92,33.21,19,48.7Z"/><path d="M633.84,371.7c-.31,3.22-13.72,7-28.06,7.61-14.12.63-29.16-1.85-30.51-4.5l-2.09-39.29c1.53-3.08,15.24-6.42,29.17-7,14.52-.67,29.24,1.49,29.4,3.94Z"/><path d="M626.93,373.78c.2,7.1-9.34,13.12-21.28,13.44s-21.79-5.18-22-12.28S593,361.83,605,361.51,626.75,366.68,626.93,373.78Z"/><path d="M456,472.63a26.33,26.33,0,0,0-9.63-18.95c-11.79-9.5-29.71-6.82-40,6l-4.65,5.77c-10.31,12.79-9.11,30.87,2.68,40.36s29.71,6.82,40-6l4.65-5.77A31,31,0,0,0,456,472.63Zm-22.33,22.8c-5.11,6.34-14,7.67-19.83,3l-4.66-3.75c-5.84-4.71-6.43-13.67-1.33-20L416,464.51c5.11-6.33,14-7.66,19.83-2.95l4.66,3.75c5.84,4.71,6.43,13.66,1.33,20Z"/><path d="M381.1,538.72h0a37.93,37.93,0,0,1-5.74-53.33l6.28-7.79A17,17,0,0,1,405.58,475l32.56,26.23a17,17,0,0,1,2.58,23.94L434.44,533A37.94,37.94,0,0,1,381.1,538.72Z"/><path fill="#ed5718" d="M382.45,533.87h0a37,37,0,0,1-5.6-52L384,473a16.6,16.6,0,0,1,23.34-2.52l31.75,25.57a16.61,16.61,0,0,1,2.51,23.34l-7.14,8.87A37,37,0,0,1,382.45,533.87Z"/><path d="M410.9,510.8a7.53,7.53,0,0,1-6.1,2.81h0l-6,7.45h0c-1.48,1.54-7.76-3.81-6.77-5.46h0l5.79-7.19h0a7.56,7.56,0,1,1,13.08,2.39Z"/><polygon points="897.86 456.87 890.16 465.63 914.28 486.43 898.15 504.77 874.03 483.97 866.5 492.53 852.45 450.37 897.86 456.87"/><polygon fill="#fff" points="899.14 452.84 891.43 461.61 915.56 482.4 899.43 500.74 875.3 479.94 867.77 488.5 853.72 446.34 899.14 452.84"/><path fill="#181c28" d="M899.48,501.48l-24.13-20.8-7.79,8.86L853,445.7l47.21,6.76-8,9.09,24.13,20.8Zm-24.23-22.27L899.38,500l15.43-17.55-24.12-20.79,7.41-8.43L854.49,447,868,487.47Z"/><path fill="#1a2251" d="M255.65,382.43a29.69,29.69,0,0,0,10.94-12.07c1.24-2.69,1.74-5.88.08-8.52a9.2,9.2,0,0,0-5.88-3.85c-5.29-1.17-10.9.94-14.92,4.38-4.26,3.67-7.51,10-5.74,15.68a9.18,9.18,0,0,0,6,6.17c3.23.92,6.25-.05,9.12-1.51,1.81-.91.22-3.63-1.59-2.71a9.58,9.58,0,0,1-6.11,1.32,5.85,5.85,0,0,1-4.31-3.79c-1.63-4.37,1-9.35,4.16-12.33,3-2.83,7.33-4.78,11.5-4.34a7.07,7.07,0,0,1,4.73,2.17c1.48,1.78,1,4.2,0,6.12a26.91,26.91,0,0,1-9.63,10.56c-1.69,1.11-.12,3.83,1.59,2.72Z"/><path fill="#1a2251" d="M241.15,371.6l6-8.19,3-4.09a17.31,17.31,0,0,0,2.5-4,4.57,4.57,0,0,0-2.64-6.11c-2.08-.74-4.54-.25-6.56.48s-1.07,3.72.84,3c1.39-.5,3.32-1.11,4.78-.51,1.84.76.08,3.17-.61,4.13-3.33,4.59-6.74,9.11-10.11,13.67a1.58,1.58,0,0,0,.57,2.15,1.61,1.61,0,0,0,2.15-.56Z"/><path fill="#1a2251" d="M224.76,381c.09-.13-.35.32-.3.28s-.5.29-.35.22a3.19,3.19,0,0,1-.73.21c-.28,0,.19,0-.09,0h-.52a3.37,3.37,0,0,1-.5-.11,1.22,1.22,0,0,1-.39-.19,1.36,1.36,0,0,1-.46-.4c.12.15-.27-.53-.19-.33a2.37,2.37,0,0,1,.19-2.23,1.82,1.82,0,0,1,.79-.69,1.39,1.39,0,0,1,.41-.16,7.36,7.36,0,0,1,.93-.21c.82-.14,2.24-.18,3.28-.34a5.9,5.9,0,0,0,3.06-1.35c2.08-1.88,1.58-5-.11-6.92-2.38-2.72-6.24-2.29-9.44-1.79a1.59,1.59,0,0,0-1.1,1.93,1.61,1.61,0,0,0,1.94,1.1,12.29,12.29,0,0,1,4.23-.18,3.27,3.27,0,0,1,2.46,1.66,1.54,1.54,0,0,1-.09,1.86c-.21.2-.11.11-.05.06a3.7,3.7,0,0,1-.33.21c-.05,0-.36.16-.13.07l-.3.1a5.25,5.25,0,0,1-1.43.25c-2.48.23-5.14.34-6.7,2.6a5.41,5.41,0,0,0,.72,6.94,5.47,5.47,0,0,0,7.92-1,1.58,1.58,0,1,0-2.72-1.59Z"/><path fill="#1a2251" d="M823.19,378.12A42.76,42.76,0,0,1,812,395.71c-2.39,2.25-5.58,5.15-9.11,4.94-1.91-.12-4.85-2.79-3.19-4.79,1.29-1.55-.93-3.79-2.22-2.22-2.42,2.91-1.15,6.95,1.79,9,3.72,2.59,8.51.49,11.71-1.93A45.32,45.32,0,0,0,826.23,379c.64-1.93-2.4-2.75-3-.84Z"/><path fill="#1a2251" d="M835.35,384.26q-6.84,11.63-13.69,23.23a1.58,1.58,0,0,0,2.72,1.59l13.69-23.23a1.58,1.58,0,0,0-2.72-1.59Z"/><path fill="#1a2251" d="M811.54,377.74c2.24-3.67,6.84-4.35,10.78-4a64.81,64.81,0,0,1,7.43,1.4l7.88,1.7,30.78,6.62c2,.43,2.82-2.61.84-3l-26-5.59-13-2.79c-4-.87-8.16-1.95-12.29-1.44a12.34,12.34,0,0,0-9.22,5.5c-1.06,1.73,1.66,3.31,2.72,1.59Z"/><path fill="#1a2251" d="M846.71,400.49l12.17,1.19a1.58,1.58,0,1,0,0-3.15l-12.17-1.19a1.58,1.58,0,0,0-1.57,1.57,1.61,1.61,0,0,0,1.57,1.58Z"/><path fill="#1a2251" d="M844,409.51a14.05,14.05,0,0,1,4.53,0,12.51,12.51,0,0,1,4.46,1.67,1.58,1.58,0,1,0,1.59-2.72,16.26,16.26,0,0,0-11.41-2,1.58,1.58,0,0,0,.83,3Z"/><path fill="#1a2251" d="M875.25,397.85a2.42,2.42,0,0,1,2.64-1.72,2.79,2.79,0,0,1,2.45,2.39c.82,3.69-2.69,6.18-5.76,7.14-1.61.5-1.43,3.31.41,3.09a4.48,4.48,0,0,1,4.66,3.3,5.58,5.58,0,0,1-2.15,6c-4.7,3.79-10.89,1.22-15.18-1.85-1.65-1.19-3.22,1.54-1.59,2.72a20,20,0,0,0,10.82,4.18,11.89,11.89,0,0,0,9.22-3.85,8.35,8.35,0,0,0,1.51-9.09c-1.26-2.8-4.12-5-7.29-4.6l.42,3.1a12.28,12.28,0,0,0,6.93-4.85,8,8,0,0,0,.55-7.51A5.7,5.7,0,0,0,877.3,393a5.48,5.48,0,0,0-5.08,4c-.46,2,2.57,2.82,3,.84Z"/><path fill="#1a2251" d="M882.44,424.76l-3,6.33a1.7,1.7,0,0,0-.16,1.21,1.58,1.58,0,0,0,2.88.38l2.95-6.33a1.77,1.77,0,0,0,.16-1.22,1.63,1.63,0,0,0-.73-.94,1.59,1.59,0,0,0-2.15.57Z"/><path fill="#1a2251" d="M898.54,402q-3.09,13.49-6.2,27c-.46,2,2.58,2.82,3,.84l6.21-27c.46-2-2.58-2.82-3-.84Z"/><path fill="#1a2251" d="M915.23,401.12Q912.59,406,910,411c-.8,1.49-1.74,3-1.51,4.8a4,4,0,0,0,2.2,3c2.41,1.24,5.33.53,7.6-.69a12.62,12.62,0,0,0,5.63-6.4,1.56,1.56,0,0,0-.92-1.85,1.6,1.6,0,0,0-2,.64,26.11,26.11,0,0,0-5.24,17.76c.16,2,3.31,2,3.15,0a23.48,23.48,0,0,1,4.81-16.17l-2.88-1.21a9.17,9.17,0,0,1-4,4.42c-1.23.69-3.54,1.62-4.86.63-.86-.64-.16-1.73.23-2.48.62-1.21,1.28-2.39,1.92-3.58,1.27-2.39,2.55-4.77,3.83-7.16.95-1.78-1.77-3.38-2.72-1.59Z"/><path d="M349.17,302.63l2.17,28.06a3,3,0,0,1-4.82,2.56l-25.25-21.49-72.5,23.71a9.79,9.79,0,0,1-12.37-6.53l-25.86-83.67A10.16,10.16,0,0,1,217,232.6l113.14-37a9.78,9.78,0,0,1,12.37,6.52l21.83,70.66A23.94,23.94,0,0,1,349.17,302.63Z"/><path fill="#00a074" d="M349.74,295.08l2.18,28.06a3,3,0,0,1-4.83,2.56l-25.24-21.49-72.51,23.7A9.78,9.78,0,0,1,237,321.39l-25.85-83.67A10.17,10.17,0,0,1,217.55,225l113.15-37a9.76,9.76,0,0,1,12.36,6.52l21.84,70.66A24,24,0,0,1,349.74,295.08Z"/><path fill="#fff" d="M247.87,272.43l19.41,31.14c.75,1.2,3.15.85,2.94-.8l-7.05-54.72-.78,1.36L312,223.74l14.2-7.35c1.81-.93.21-3.65-1.59-2.72L275,239.34l-14.21,7.35a1.52,1.52,0,0,0-.78,1.36l7.05,54.72L270,302l-19.41-31.14c-1.07-1.72-3.79-.14-2.72,1.59Z"/><path fill="#fff" d="M280.5,259.73c1-2.61,4.33-3.42,6.79-2.78,3.41.88,5,4.5,5.1,7.77.16,8-9.74,14.86-4.79,23a1.6,1.6,0,0,0,2.72,0c1.3-1.95,4-2.35,6.12-2.61,2.59-.31,5.34-.58,7.52-2.17,3.25-2.37,3.86-8.43-.62-9.85-1.94-.61-2.77,2.43-.84,3,1.22.39,1.06,2.19.63,3.11-.81,1.74-3.17,2.2-4.86,2.48-3.95.65-8.21.73-10.67,4.41h2.72c-2.07-3.43-.11-7.45,1.61-10.58s3.47-6.38,3.6-10.13c.23-6.24-4.09-12.51-10.86-11.82a8.29,8.29,0,0,0-7.21,5.24c-.71,1.9,2.33,2.72,3,.84Z"/><path fill="#fff" d="M305,245.4a50.56,50.56,0,0,1,7.13,16.12c.43,1.77,3,1.31,3.09-.42a6.59,6.59,0,0,1,5.51-5.82,6.26,6.26,0,0,1,6.63,3.87c2.84,6.1-3.56,11.72-9.51,9.94-1.95-.58-2.78,2.46-.84,3,6.41,1.92,14-2.54,14.21-9.54.19-6.73-6.35-12.48-12.93-9.86a9.59,9.59,0,0,0-6.22,8.37l3.09-.42a53,53,0,0,0-7.44-16.87c-1.12-1.67-3.85-.1-2.72,1.59Z"/><path fill="#fff" d="M307.1,246.59l12.71-7.09-2.15-.57.95,1.77c1,1.79,3.68.2,2.72-1.59l-.95-1.77a1.6,1.6,0,0,0-2.16-.56l-12.71,7.09c-1.78,1-.19,3.71,1.59,2.72Z"/><path fill="#fff" d="M324.5,217.3a6.13,6.13,0,0,1,.78.46c.23.15-.21-.18-.07,0l.18.14.33.31.28.3a1.24,1.24,0,0,0,.14.18c-.09-.07-.2-.28-.05-.07a8.81,8.81,0,0,1,.47.77c.07.13.12.25.18.37-.22-.42,0,0,0,.14a5.31,5.31,0,0,1,.23.87c0,.07.05.34,0,.06s0,0,0,.06,0,.31,0,.46,0,.27,0,.4a1.64,1.64,0,0,1,0,.23c0,.3.06-.38,0-.06a1.72,1.72,0,0,0,.16,1.22,1.65,1.65,0,0,0,.94.72,1.6,1.6,0,0,0,1.94-1.1,7.88,7.88,0,0,0-.74-4.87,7.35,7.35,0,0,0-3.24-3.26,1.58,1.58,0,0,0-1.59,2.72Z"/><path fill="#1a2251" d="M205.44,411.19l8.86-4.69L211,402.19l2.35-1.82,3.69,4.78,6.55-3.49-3.49-4.51,2.35-1.82,3.81,4.93,8.66-4.54,2.36,3.06-8.66,4.54,4.21,5.45,8.62-4.59,2.37,3.06-8.62,4.59,3.29,4.25-2.36,1.82-3.64-4.72L226,416.71l3.45,4.47L227,423l-3.8-4.92-8.86,4.69L212,419.65l8.86-4.7-4.17-5.39-8.82,4.74Zm18.1,2.41,6.55-3.48-4.17-5.4-6.55,3.49Z"/><path fill="#1a2251" d="M296.43,481.76c5.79-1.11,10.25,1.64,11.42,7.78,1.29,6.78-2.65,11-8.06,12s-10.34-1.42-11.63-7.85,2.6-10.91,8.2-12Zm.24,2.67c-3.48.66-4.8,4.24-4,8.3s3.3,6.87,6.85,6.2c3.73-.71,4.82-4.1,4-8.36-.75-3.91-2.85-6.9-6.78-6.15Zm5.25,30.81,18.33-38.06,3.6-.69-18.32,38.07Zm24.35-25.35c5.79-1.1,10.25,1.64,11.42,7.78,1.29,6.78-2.65,11-8.06,12.05s-10.34-1.42-11.63-7.85,2.6-10.9,8.2-12Zm.24,2.67c-3.48.66-4.8,4.25-4,8.31s3.3,6.86,6.85,6.19c3.73-.71,4.82-4.1,4-8.36-.75-3.91-2.85-6.9-6.78-6.15Z"/><path d="M489.8,293.65a52.55,52.55,0,0,0-15.21-100.74A22.61,22.61,0,0,1,455.77,179l-15.95-39.52A12.13,12.13,0,0,0,424,132.76h0a12.13,12.13,0,0,0-6.7,15.79l15.95,39.52a22.55,22.55,0,0,1-3.86,23.07,52.55,52.55,0,0,0,60.38,82.51Zm-43.95-74.46a34.36,34.36,0,1,1-8.61,38.18A34.43,34.43,0,0,1,445.85,219.19Z"/><path fill="#eae4d8" d="M494.73,287.72A52.56,52.56,0,0,0,479.52,187a22.57,22.57,0,0,1-18.82-13.92l-16-39.52a12.11,12.11,0,0,0-15.78-6.7h0a12.13,12.13,0,0,0-6.7,15.79l15.95,39.52a22.55,22.55,0,0,1-3.86,23.07,52.55,52.55,0,0,0,60.38,82.51Zm-44-74.46a34.11,34.11,0,0,1,10.38-6.55,34.34,34.34,0,1,1-10.38,6.55Z"/><path fill="#1b264a" d="M474.39,292.36h0A53.08,53.08,0,0,1,434,204.87a22,22,0,0,0,3.78-22.54l-16-39.52a12.67,12.67,0,0,1,7-16.47,12.65,12.65,0,0,1,16.47,7l16,39.52a22,22,0,0,0,18.39,13.59,52.87,52.87,0,0,1,44.28,33.66,53.09,53.09,0,0,1-49.47,72.25ZM433.5,126.47a11.61,11.61,0,0,0-10.76,15.95l16,39.52a23.06,23.06,0,0,1-3.95,23.61,52,52,0,0,0,39.64,85.76h0a51.8,51.8,0,0,0,20.13-4.07,52.37,52.37,0,0,0,28.36-66.75,51.81,51.81,0,0,0-43.41-33,23.09,23.09,0,0,1-19.25-14.25l-16-39.52A11.56,11.56,0,0,0,433.5,126.47Zm40.54,147a34.89,34.89,0,0,1-.77-69.78H474a34.9,34.9,0,0,1,0,69.79Zm0-68.74h-.72a33.92,33.92,0,0,0-22.16,8.91A33.84,33.84,0,0,0,474,272.41a33.64,33.64,0,0,0,13.13-2.66,33.84,33.84,0,0,0-13.15-65Z"/><polygon fill="#fff" points="595.25 218.91 611.26 146.51 591.12 144.31 581.38 77.89 566.2 162.57 588.02 165.41 595.25 218.91"/><path fill="#181c28" d="M595.13,221.91l-7.57-56-22-2.86,15.84-88.39,10.15,69.2,20.32,2.22Zm-28.32-59.78,21.68,2.81,0,.4,6.84,50.58,15.25-69-20-2.17-.06-.4-9.27-63.23Z"/><path d="M717.54,179.12c-4.57-3.75-5.82-9.77-2.79-13.46a7.75,7.75,0,0,1,5.74-2.73,2.74,2.74,0,0,0,2-1.05l.41-.49a3,3,0,0,0-.47-4.2l-9.9-8.12a3,3,0,0,1-.47-4.2l9.48-11.57a3,3,0,0,1,4.21-.36l.27.23a3,3,0,0,1,1.12,2.05,8.2,8.2,0,0,0,2.91,5.79c3.79,3.1,9.82,2,13.46-2.43s3.5-10.57-.3-13.68a8.24,8.24,0,0,0-6.57-1.65,3,3,0,0,1-2.39-.66h0a3,3,0,0,1-.48-4.2l10.38-12.66a3,3,0,0,1,4.21-.36L784,134.54a3,3,0,0,1,.48,4.2l-9,10.93a3,3,0,0,0,.48,4.2l.24.2a3,3,0,0,0,2.49.66,8.23,8.23,0,0,1,6.87,1.61c3.79,3.11,3.92,9.23.28,13.67s-9.67,5.52-13.47,2.41a8.06,8.06,0,0,1-2.86-5.46,3,3,0,0,0-1.1-2l-.95-.77a3,3,0,0,0-4.21.36l-10.9,13.29a3,3,0,0,1-4.21.36l-10.35-8.48a3,3,0,0,0-4.21.36l-.21.25a2.91,2.91,0,0,0-.6,2.37,7.81,7.81,0,0,1-1.49,6.48C728.27,182.91,722.12,182.87,717.54,179.12Z"/><path fill="#ed5718" d="M717.58,175.06c-4.57-3.75-5.82-9.77-2.79-13.46a7.75,7.75,0,0,1,5.74-2.73,2.79,2.79,0,0,0,2-1.05l.41-.5a3,3,0,0,0-.47-4.2L712.6,145a3,3,0,0,1-.48-4.2l9.49-11.57a3,3,0,0,1,4.21-.36l.27.23a3,3,0,0,1,1.12,2,8.12,8.12,0,0,0,2.91,5.78c3.79,3.11,9.82,2,13.45-2.43s3.5-10.56-.29-13.67a8.25,8.25,0,0,0-6.57-1.65,3.06,3.06,0,0,1-2.39-.66h0a3,3,0,0,1-.48-4.21l10.38-12.66a3,3,0,0,1,4.21-.35L784,130.48a3,3,0,0,1,.48,4.2l-9,10.93a3,3,0,0,0,.47,4.2l.25.2a3,3,0,0,0,2.49.65,8.27,8.27,0,0,1,6.87,1.62c3.79,3.11,3.92,9.22.28,13.67s-9.67,5.52-13.47,2.41a8.08,8.08,0,0,1-2.86-5.46,3,3,0,0,0-1.1-2l-1-.77a3,3,0,0,0-4.21.35l-10.9,13.3a3,3,0,0,1-4.22.36l-10.34-8.48a3,3,0,0,0-4.21.36l-.21.25a2.9,2.9,0,0,0-.6,2.36,7.83,7.83,0,0,1-1.49,6.49C728.31,178.85,722.15,178.8,717.58,175.06Z"/><path fill="#1a2251" d="M612.57,326.69A205.14,205.14,0,0,1,625.27,276q2.79-7.1,6.1-14c.44-.91-.92-1.71-1.36-.8a205.93,205.93,0,0,0-16.75,50.69q-1.39,7.33-2.26,14.76c-.12,1,1.46,1,1.57,0Z"/><path fill="#1a2251" d="M592.32,326.73a133.46,133.46,0,0,0-18.76-60.08.79.79,0,0,0-1.36.79,133,133,0,0,1,16.9,45.45,131.27,131.27,0,0,1,1.65,13.84c.06,1,1.64,1,1.57,0Z"/><path fill="#1a2251" d="M562.11,268.34a19.49,19.49,0,0,0,17.4,4.09,19.09,19.09,0,0,0,13.75-20.87c-.42-3-1.69-6.36-4.58-7.77-2.65-1.28-5.89-.63-7.25,2.13s-.8,5.94.07,8.6a17.88,17.88,0,0,0,30.71,6.21,18.55,18.55,0,0,0,3.95-8.39c.48-2.59.79-6.3-.85-8.57-2.15-3-5.24-.24-6.62,1.91a18.75,18.75,0,0,0,3.9,24.21,19.2,19.2,0,0,0,17,3.12,18,18,0,0,0,4-1.8c.87-.52.08-1.89-.79-1.36-9.1,5.49-21.73,1-24.7-9.34a17.28,17.28,0,0,1,2.31-14.65c.95-1.32,2.82-2.81,3.83-.71a9.26,9.26,0,0,1,.62,4.08,17.08,17.08,0,0,1-2.08,7.81,16.3,16.3,0,0,1-27.6,1.46,16.69,16.69,0,0,1-2.88-7.27c-.32-2.47,0-6.17,3.14-6.51s5.24,2.79,5.93,5.54a16.46,16.46,0,0,1,0,7.77,17.33,17.33,0,0,1-11.2,12.56,17.88,17.88,0,0,1-17-3.36c-.76-.66-1.88.45-1.11,1.11Z"/></svg>